<svg version="1.1" xmlns="http://www.w3.org/2000/svg" xmlns:xlink="http://www.w3.org/1999/xlink" width="36" height="35" viewBox="0 0 36 35"><g id="g+-icon"><path id="Color-Fill-1" d="M0.795,17.675 C0.795,27.219 8.531,34.955 18.075,34.955 C27.619,34.955 35.355,27.219 35.355,17.675 C35.355,8.131 27.619,0.395 18.075,0.395 C8.531,0.395 0.795,8.131 0.795,17.675 z" fill="#BA2323" /><path id="Color-Fill-1" d="M14.374,25.676 C14.288,25.676 14.239,25.676 14.239,25.676 C14.239,25.676 14.198,25.676 14.142,25.676 C13.436,25.676 9.925,25.514 9.925,22.315 C9.925,19.173 13.750,18.926 14.921,18.926 C14.952,18.926 14.952,18.926 14.952,18.926 C14.275,18.022 14.416,17.112 14.416,17.112 C14.356,17.115 14.270,17.119 14.164,17.119 C13.723,17.119 12.871,17.049 12.140,16.577 C11.244,16.001 10.790,15.020 10.790,13.663 C10.790,9.827 14.979,9.672 15.020,9.669 C19.204,9.669 19.204,9.669 19.204,9.669 C19.204,9.669 19.204,9.760 19.204,9.760 C19.204,10.228 18.363,10.320 17.791,10.398 C17.596,10.426 17.206,10.464 17.096,10.520 C18.156,11.087 18.327,11.976 18.327,13.301 C18.327,14.809 17.737,15.607 17.110,16.167 C16.721,16.514 16.417,16.786 16.417,17.151 C16.417,17.509 16.835,17.875 17.321,18.301 C18.115,19.002 19.204,19.954 19.204,21.561 C19.204,23.223 18.489,24.411 17.080,25.093 C15.994,25.620 14.826,25.676 14.374,25.676 zM23.475,17.675 L23.475,20.375 L21.675,20.375 L21.675,17.675 L18.975,17.675 L18.975,15.875 L21.675,15.875 L21.675,13.175 L23.475,13.175 L23.475,15.875 L26.175,15.875 L26.175,17.675 L23.475,17.675 zM14.594,19.756 C13.795,19.815 13.057,20.114 12.524,20.600 C11.995,21.079 11.725,21.684 11.762,22.294 C11.843,23.574 13.217,24.322 14.885,24.204 C16.527,24.085 17.621,23.138 17.542,21.858 C17.467,20.656 16.421,19.745 14.876,19.745 C14.783,19.745 14.689,19.749 14.594,19.756 zM14.221,10.804 C14.104,10.804 13.985,10.822 13.872,10.853 C13.399,10.988 13.022,11.382 12.814,11.969 C12.599,12.563 12.587,13.182 12.770,13.888 C13.103,15.150 14.000,16.064 14.903,16.064 C15.022,16.064 15.141,16.050 15.253,16.015 C16.241,15.738 16.860,14.230 16.450,12.788 C16.014,11.258 15.312,10.804 14.221,10.804 z" fill="#FFFFFF" /></g></svg>